<?xml version="1.0" encoding="utf-8"?>
<!-- Generator: Adobe Illustrator 23.1.0, SVG Export Plug-In . SVG Version: 6.00 Build 0)  -->
<svg version="1.1" id="Layer_2" xmlns="http://www.w3.org/2000/svg" xmlns:xlink="http://www.w3.org/1999/xlink" x="0px" y="0px"
	 viewBox="0 0 512 512" style="enable-background:new 0 0 512 512;" xml:space="preserve">
<style type="text/css">
	.st0{display:none;fill:none;stroke:#070308;stroke-width:8;stroke-linecap:round;stroke-miterlimit:10;}
	.st1{display:none;fill:#070308;}
	.st2{display:none;fill:none;stroke:#070308;stroke-width:18.968;stroke-linecap:round;stroke-miterlimit:10;}
	.st3{display:none;fill:none;stroke:#65952B;stroke-width:33.806;stroke-linecap:round;stroke-miterlimit:10;}
	
		.st4{display:none;fill:none;stroke:#65952B;stroke-width:40.4429;stroke-linecap:round;stroke-linejoin:round;stroke-miterlimit:10;}
	
		.st5{display:none;fill:#070308;stroke:#000000;stroke-width:1.2983;stroke-linecap:round;stroke-linejoin:round;stroke-miterlimit:10;}
	.st6{fill:none;stroke:#65952B;stroke-width:40.6102;stroke-miterlimit:10;}
	.st7{fill:#65952B;stroke:#65952B;stroke-width:40.6102;stroke-miterlimit:10;}
	.st8{fill:none;stroke:#65952B;stroke-width:38.1572;stroke-linecap:round;stroke-miterlimit:10;}
	.st9{fill:#65952B;stroke:#65952B;stroke-width:32.2197;stroke-linecap:round;stroke-linejoin:round;stroke-miterlimit:10;}
</style>
<path class="st0" d="M242.08,269.78c0.63,0.81,6.38,7.92,16.18,7.77c9.41-0.15,14.85-6.89,15.53-7.77"/>
<circle class="st1" cx="215.39" cy="251.19" r="6.63"/>
<circle class="st1" cx="296.61" cy="251.19" r="6.63"/>
<line class="st2" x1="367.09" y1="255.77" x2="367.09" y2="268.88"/>
<line class="st2" x1="150.47" y1="255.77" x2="150.47" y2="268.88"/>
<line class="st3" x1="77.38" y1="223.62" x2="77.38" y2="285.56"/>
<line class="st3" x1="434.62" y1="222.05" x2="434.62" y2="279.41"/>
<polyline class="st4" points="275.11,391.53 256,353.16 236.89,391.53 "/>
<polygon class="st5" points="256,295.76 245.12,314.61 266.88,314.61 "/>
<g>
	<path class="st6" d="M491.89,284.63c6.43,115.29-89.54,231.4-230.17,201.52c-3.1-0.65-6.27-0.7-9.37-0.11
		C113.12,511.49,15.49,400,19.95,284.63c5.32-137.66,58.14-182.26,151.97-198.74c11.1,1.98,22.09-8.81,27.49-5.06
		c0.83,0.58,1.02,1.87,0.42,2.74c-5.69,8.39-32.46,40.29-38.07,62.04c-0.4,1.55,0.98,2.9,2.23,2.18
		c13.49-7.83,68.16-31.12,88.32-39.1c0.27-0.11,0.54-0.13,0.83-0.07c5.79,1.48,69.74,10.23,97.23,36.85
		c1.19,1.15,2.94-0.2,2.52-1.96c-2.94-11.65-11.29-30.04-30.78-53.58c-0.71-0.85-0.6-2.25,0.29-2.86c3.35-2.36,11.95,6,27.09,2
		C436.41,109.27,484.49,151.99,491.89,284.63z"/>
	<path class="st7" d="M236.24,22.94v39.17c0,1.1-0.81,1.97-1.75,1.84c-9-1.2-51.33-3.18-94.48,15.93c-1.58,0.7-1.26,3.43,0.42,3.6
		c13.46,1.35,43.15-9.68,53.3-2.64c0.82,0.57,1,1.86,0.41,2.74c-5.69,8.38-32.45,40.29-38.07,62.03c-0.4,1.55,0.99,2.9,2.23,2.18
		c13.49-7.83,68.17-31.11,88.33-39.11c0.28-0.11,0.54-0.13,0.83-0.05c5.78,1.49,69.73,10.22,97.23,36.85
		c1.2,1.16,2.95-0.2,2.51-1.95c-2.93-11.66-11.29-30.06-30.78-53.59c-0.71-0.86-0.58-2.25,0.29-2.86
		c5.02-3.54,21.85,1.21,54.78-1.41c1.45-0.12,2.11-2.42,0.87-3.3c-17.82-12.71-41.19-31.96-94.24-20.72
		c-1.02,0.22-2.01-0.4-2.09-1.61l-2.98-37.23c-0.06-0.97-0.75-1.72-1.58-1.72h-33.65C236.95,21.09,236.24,21.92,236.24,22.94z"/>
	<polyline class="st6" points="26.39,289.97 95.2,289.97 485.61,289.97 	"/>
	<g>
		<line class="st8" x1="127.25" y1="246.19" x2="127.25" y2="274.68"/>
		<line class="st8" x1="256" y1="223.64" x2="256" y2="282.74"/>
		<line class="st8" x1="384.75" y1="245.8" x2="384.75" y2="280.85"/>
	</g>
	<polygon class="st9" points="256,352.01 226.92,402.81 285.08,402.81 	"/>
</g>
</svg>
